<svg width="1080" height="1080" viewBox="0 0 1080 1080" fill="none" xmlns="http://www.w3.org/2000/svg">
<path d="M779.121 477.604C787.387 516.488 787.889 556.624 780.599 595.703C754.443 594.743 729.143 586.126 707.831 570.92C686.519 555.715 670.131 534.587 660.697 510.154C660.283 507.728 659.81 505.272 659.308 502.845C657.677 495.161 655.554 487.59 652.95 480.178C640.27 444.322 616.527 413.428 585.152 391.96C553.777 370.492 516.395 359.563 478.406 360.75C440.417 361.938 403.789 375.181 373.814 398.567C343.839 421.952 322.07 454.269 311.65 490.848C301.231 527.427 302.702 566.374 315.85 602.061C328.999 637.749 353.144 668.329 384.797 689.384C416.45 710.439 453.972 720.877 491.942 719.192C529.912 717.507 566.364 703.785 596.03 680.008C616.785 685.522 635.908 695.956 651.781 710.43C667.653 724.904 679.81 742.99 687.221 763.16C644.131 802.478 590.581 828.461 533.047 837.967C475.514 847.472 416.46 840.092 363.029 816.72C309.597 793.349 264.076 754.985 231.971 706.27C199.865 657.555 182.551 600.574 182.121 542.219C181.69 483.864 198.163 426.634 229.547 377.45C260.931 328.266 305.882 289.235 358.963 265.077C412.044 240.919 470.982 232.668 528.65 241.323C586.317 249.978 640.244 275.168 683.909 313.846C695.591 324.141 706.465 335.32 716.435 347.284C747.615 384.972 769.133 429.706 779.121 477.604Z" fill="white"/>
<path d="M896.39 707.972C900.616 728.613 897.106 750.089 886.53 768.307C875.953 786.526 859.048 800.214 839.037 806.762C819.026 813.311 797.306 812.263 778.017 803.818C758.728 795.374 743.217 780.122 734.441 760.97C732.027 755.646 730.184 750.081 728.941 744.369C715.741 710.362 692.502 681.186 662.318 660.727C632.134 640.268 596.438 629.498 559.984 629.851L557.028 630.591C541.013 633.956 524.36 632.497 509.174 626.398C493.987 620.298 480.947 609.831 471.701 596.319C462.455 582.807 457.417 566.856 457.225 550.481C457.032 534.105 461.692 518.04 470.617 504.313C479.543 490.587 492.332 479.816 507.371 473.359C522.41 466.903 539.023 465.051 555.113 468.038C571.203 471.025 586.047 478.717 597.771 490.142C609.495 501.567 617.573 516.213 620.985 532.229C621.162 533.117 621.31 534.005 621.488 534.893C630.053 554.47 642.072 572.342 656.97 587.654L657.296 588.009C686.889 618.304 726.222 637.168 768.356 641.273H768.859C783.883 642.661 799.021 642.164 813.922 639.794C833.354 640.123 852.097 647.049 867.081 659.437C882.064 671.824 892.398 688.937 896.39 707.972Z" fill="white"/>
</svg>
