<svg width="602" height="198" viewBox="0 0 602 198" fill="none" xmlns="http://www.w3.org/2000/svg">
<path d="M142.553 92.1792C143.416 96.2586 143.501 100.464 142.804 104.572C142.754 104.866 142.494 105.075 142.199 105.053C139.539 104.861 136.978 103.935 134.801 102.374C132.5 100.724 130.727 98.4371 129.698 95.7911C129.683 95.754 129.673 95.7156 129.666 95.676C129.624 95.4306 129.576 95.1822 129.525 94.9368C129.348 94.0974 129.117 93.27 128.834 92.4606C127.455 88.5432 124.874 85.1676 121.462 82.8222C118.051 80.4768 113.986 79.2828 109.856 79.4124C105.725 79.5426 101.742 80.9892 98.4832 83.544C95.2236 86.0994 92.8568 89.6298 91.7238 93.6264C90.5909 97.6224 90.751 101.878 92.1807 105.776C93.6105 109.675 96.2353 113.017 99.6771 115.316C103.119 117.617 107.199 118.757 111.327 118.573C115.355 118.394 119.227 116.962 122.408 114.48C122.558 114.363 122.754 114.32 122.936 114.373C125.08 114.994 127.056 116.103 128.707 117.616C130.334 119.107 131.602 120.948 132.417 123.001C132.507 123.227 132.444 123.485 132.262 123.647C127.629 127.792 121.921 130.533 115.797 131.549C109.541 132.588 103.12 131.782 97.3103 129.229C91.5005 126.675 86.5513 122.484 83.0599 117.161C79.5692 111.839 77.6867 105.614 77.6396 99.2388C77.593 92.8632 79.384 86.6106 82.7966 81.237C86.2091 75.8634 91.0968 71.5992 96.8683 68.9598C102.64 66.321 109.048 65.4192 115.318 66.3648C121.589 67.3104 127.453 70.0626 132.2 74.2884C133.47 75.4128 134.653 76.6344 135.737 77.9412C139.127 82.059 141.467 86.946 142.553 92.1792Z" fill="white"/>
<path d="M155.303 117.347C155.763 119.603 155.382 121.949 154.231 123.939C153.082 125.93 151.243 127.425 149.068 128.141C146.891 128.856 144.53 128.741 142.433 127.819C140.335 126.896 138.649 125.23 137.695 123.137C137.432 122.556 137.232 121.948 137.096 121.324C135.661 117.608 133.134 114.421 129.853 112.186C126.57 109.951 122.69 108.774 118.726 108.812L118.404 108.893C116.663 109.261 114.852 109.102 113.201 108.435C111.55 107.769 110.132 106.625 109.127 105.149C108.121 103.673 107.573 101.93 107.552 100.141C107.531 98.352 108.038 96.597 109.008 95.097C109.979 93.5976 111.37 92.421 113.005 91.7154C114.64 91.0098 116.446 90.8076 118.196 91.134C119.945 91.4604 121.56 92.301 122.834 93.549C124.109 94.797 124.987 96.3972 125.359 98.1474C125.378 98.244 125.394 98.3412 125.413 98.4378C126.344 100.577 127.651 102.53 129.271 104.203L129.306 104.241C132.524 107.551 136.801 109.612 141.382 110.06H141.437C143.07 110.212 144.716 110.158 146.337 109.899C148.45 109.935 150.488 110.692 152.117 112.045C153.746 113.398 154.87 115.268 155.303 117.347Z" fill="white"/>
<path d="M168.006 105.308V102.967C168.006 94.2162 175.238 88.0506 185.657 87.9894C196.078 88.0506 203.369 94.1544 203.369 102.967V105.308C203.369 114.616 196.505 120.532 185.657 120.532C174.81 120.532 168.006 114.616 168.006 105.308ZM191.85 106.663V101.794C191.85 98.238 189.641 95.1408 185.78 95.1408C181.674 95.1408 179.53 98.16 179.53 101.794V106.663C179.53 110.116 181.674 113.381 185.657 113.381C189.641 113.381 191.85 110.116 191.85 106.663Z" fill="white"/>
<path d="M203.739 131.993V88.8528H215.201V89.6544C215.121 90.7482 214.829 91.8156 214.342 92.7966L213.85 93.7212L214.034 93.8442L215.201 92.3052C216.915 89.6544 220.776 87.9894 224.331 87.9894C233.218 87.9894 238.735 93.537 238.735 103.274V105.554C238.735 114.428 233.218 120.532 224.331 120.532C220.898 120.532 217.345 119.239 215.567 116.588H215.201V131.993H203.739ZM227.334 105.615V102.906C227.334 98.16 224.82 95.1468 221.329 95.1468C217.712 95.1468 215.262 98.1054 215.262 102.725V105.871C215.262 110.552 217.773 113.449 221.512 113.449C225.007 113.442 227.334 110.545 227.334 105.615Z" fill="white"/>
<path d="M239.179 105.308V102.967C239.179 94.2162 246.41 88.0506 256.83 87.9894C267.25 88.0506 274.541 94.1544 274.541 102.967V106.404H250.702V106.96C250.702 110.41 252.846 113.368 256.83 113.368C259.723 113.368 261.672 111.829 262.652 108.871H274.114C272.642 116.203 266.147 120.509 256.83 120.509C245.982 120.532 239.179 114.616 239.179 105.308ZM262.823 100.439C262.334 97.1742 260.251 95.1408 256.939 95.1408C253.692 95.1408 251.422 97.0512 250.811 100.439H262.823Z" fill="white"/>
<path d="M275.171 119.659V88.8527H286.63V89.2859C286.569 90.2105 286.203 91.0703 285.405 92.2439L285.083 92.7965L285.267 92.9807L286.614 91.6265C287.791 90.4481 289.191 89.5181 290.731 88.8911C292.271 88.2641 293.92 87.9533 295.581 87.9761C304.407 87.9149 309.065 92.9063 309.065 102.398V119.659H297.603V101.794C297.603 97.4813 295.996 95.1407 292.331 95.1407C288.53 95.1407 286.63 97.7885 286.63 101.981V119.659H275.171Z" fill="white"/>
<path d="M351.845 123.367C348.903 123.302 344.489 121.518 341.425 119.546C338.906 120.209 336.312 120.535 333.709 120.516C316.917 120.516 310.357 108.622 310.357 98.451V97.8498C310.357 87.7434 316.917 75.6654 333.709 75.6654C350.684 75.6654 356.754 87.7434 356.754 97.8498V98.4672C356.754 104.261 354.793 110.607 349.951 114.923C352.34 116.155 353.259 116.539 356.877 117.386L351.845 123.367ZM345.531 98.4738V97.8498C345.531 91.8108 342.637 83.9226 333.702 83.9226C324.507 83.9838 321.807 91.8108 321.807 97.8498V98.4672C321.807 104.568 324.501 112.21 333.702 112.272C342.65 112.272 345.531 104.568 345.531 98.4672V98.4738Z" fill="white"/>
<path d="M358.953 106.11V88.8528H370.354V106.727C370.354 111.04 371.945 113.381 374.887 113.381C378.626 113.381 381.385 110.733 381.385 106.54V88.8528H392.785V119.659H381.385V118.98C381.538 117.973 381.938 117.019 382.549 116.206L382.796 115.715L382.671 115.531L381.385 116.885C379.302 119.041 376.116 120.522 372.383 120.522C363.551 120.593 358.953 115.601 358.953 106.11Z" fill="white"/>
<path d="M394.133 111.532C394.133 105.185 399.65 102.78 407.067 101.548L414.237 100.439C415.202 100.316 415.706 99.8862 415.706 99.2688V99.0234C415.706 97.5426 413.806 96.2496 411.234 96.2496C408.341 96.2496 406.759 97.6038 406.27 99.159H395.053C395.284 93.1068 401.856 87.9762 411.662 87.9762C421.223 87.9762 427.737 92.0436 427.737 98.8872V119.659H417.317V118.735C417.317 117.687 417.638 116.762 418.114 115.654L418.664 114.606L418.542 114.545L417.317 116.206C414.989 119.348 409.899 120.522 405.794 120.522C398.792 120.532 394.133 116.772 394.133 111.532ZM415.767 108.884V106.355L409.273 107.526C406.759 108.02 405.534 108.884 405.534 110.607C405.534 112.223 407.251 113.258 409.639 113.258C412.967 113.258 415.767 111.532 415.767 108.884Z" fill="white"/>
<path d="M430.479 119.659V88.8528H441.941V89.286C441.88 90.2106 441.51 91.0704 440.713 92.244L440.391 92.7966L440.574 92.9808L441.925 91.6266C443.104 90.4464 444.505 89.5152 446.047 88.8882C447.59 88.2612 449.241 87.9516 450.905 87.9762C459.73 87.915 464.389 92.9064 464.389 102.398V119.659H452.927V101.794C452.927 97.4814 451.319 95.1408 447.657 95.1408C443.857 95.1408 441.957 97.7886 441.957 101.981V119.659H430.479Z" fill="white"/>
<path d="M489.745 120.037C482.512 121.146 476.885 120.593 473.992 118.56C471.298 116.772 470.256 114.493 470.256 110.917V97.1124H464.861V88.8528H468.356C469.764 88.8528 470.561 88.1124 470.561 86.8806V82.6776L481.901 80.4144V85.5876C481.901 87.498 480.734 88.2996 479.692 88.668V88.791L489.684 88.8528V97.1124H481.901V108.7C481.901 112.517 484.473 112.951 489.745 112.394V120.037Z" fill="white"/>
<path d="M490.771 111.532C490.771 105.185 496.285 102.78 503.703 101.548L510.872 100.439C511.837 100.316 512.344 99.8862 512.344 99.2688V99.0234C512.344 97.5426 510.445 96.2496 507.869 96.2496C504.976 96.2496 503.397 97.6038 502.905 99.159H491.691C491.935 93.1068 498.488 87.9762 508.3 87.9762C517.861 87.9762 524.356 92.0436 524.356 98.8872V119.659H513.94V118.735C513.94 117.687 514.261 116.762 514.733 115.654L515.286 114.606L515.164 114.545L513.94 116.206C511.609 119.348 506.522 120.522 502.416 120.522C495.427 120.532 490.771 116.772 490.771 111.532ZM512.406 108.884V106.355L505.908 107.526C503.397 108.02 502.169 108.884 502.169 110.607C502.169 112.223 503.886 113.258 506.278 113.258C509.586 113.258 512.406 111.532 512.406 108.884Z" fill="white"/>
</svg>
